<svg width="132" height="132" xmlns="http://www.w3.org/2000/svg">
 <g class="layer">
  <title>Layer 1</title>
  <path id="svg_5" fill="#1ED760" d="m66,0c-36.45,0 -66,29.55 -66,66c0,36.45 29.55,66 66,66c36.45,0 66,-29.55 66,-66c0,-36.45 -29.55,-66 -66,-66zm32.2,95.14c-1.06,1.88 -3.01,2.94 -5.02,2.94c-0.94,0 -1.91,-0.24 -2.8,-0.73c-8.24,-4.62 -17.22,-7.45 -26.71,-8.41c-9.51,-0.96 -18.9,0.01 -27.92,2.89c-3.01,0.96 -6.25,-0.7 -7.21,-3.72c-0.97,-3.02 0.7,-6.25 3.72,-7.21c10.52,-3.37 21.49,-4.51 32.57,-3.38c11.06,1.12 21.54,4.42 31.16,9.82c2.77,1.54 3.76,5.04 2.21,7.8zm7.9,-20.04c-1.02,1.96 -3.02,3.09 -5.09,3.09c-0.9,0 -1.8,-0.21 -2.65,-0.66c-10.13,-5.27 -21.07,-8.54 -32.54,-9.7c-11.56,-1.19 -23.01,-0.15 -34.05,3.03c-3.05,0.86 -6.23,-0.88 -7.1,-3.93c-0.88,-3.04 0.88,-6.22 3.92,-7.1c12.46,-3.59 25.38,-4.74 38.39,-3.42c12.92,1.31 25.26,4.99 36.69,10.95c2.8,1.46 3.9,4.93 2.43,7.74zm2.86,-16.68c-0.86,0 -1.73,-0.2 -2.56,-0.6c-12.02,-6 -24.95,-9.73 -38.44,-11.1c-13.51,-1.38 -26.95,-0.31 -39.96,3.16c-3.06,0.81 -6.2,-1 -7.02,-4.07c-0.82,-3.06 1,-6.21 4.07,-7.02c14.35,-3.83 29.19,-5 44.08,-3.49c14.87,1.51 29.13,5.63 42.39,12.24c2.84,1.42 3.99,4.86 2.58,7.7c-1,2.01 -3.03,3.18 -5.14,3.18z"/>
 </g>

</svg>